# xmcd
# Track frame offsets:
# 150
# 3342
# 23134
# 41543
# 65829
# 82978
# 105532
# 117907
# 132613
# 149119
# 176194
#
# Disc length: 2476 seconds
# Revision: 0
# Processed by: cddbd v1.5PL3 Copyright (c) Steve Scherf et al.
# Submitted via: VisiTrax 2.9.9.209 - For more info visit www.synapsa.com
#
DISCID=9d09aa0b
DTITLE=Jimmy's Soul Attack - Feeling Alright
DYEAR=1900
DGENRE=Blues Rock
TTITLE0=Addicted To Blues Part 1
TTITLE1=Feeling Alright
TTITLE2=Show Your Emotion
TTITLE3=Crime
TTITLE4=Shake Your Groove Thing
TTITLE5=You Are So Beautiful
TTITLE6=Think
TTITLE7=Soul Man
TTITLE8=6-3-4-5-7-8-9
TTITLE9=Proud Mary
TTITLE10=Addicted To Blues Part 2
EXTD=
EXTT0=
EXTT1=
EXTT2=
EXTT3=
EXTT4=
EXTT5=
EXTT6=
EXTT7=
EXTT8=
EXTT9=
EXTT10=
PLAYORDER=
